<svg width="27" height="20" viewBox="0 0 27 20" fill="none" xmlns="http://www.w3.org/2000/svg">
<path d="M26.1563 11.6667C26.3848 11.6667 26.5825 11.7491 26.7495 11.9141C26.9165 12.079 27 12.2743 27 12.5V14.1667C27 14.3924 26.9165 14.5877 26.7495 14.7526C26.5825 14.9175 26.3848 15 26.1563 15H25.3125V18.3333C25.3125 18.8021 25.1499 19.197 24.8247 19.5182C24.4995 19.8394 24.0996 20 23.625 20H1.6875C1.21289 20 0.812988 19.8394 0.487793 19.5182C0.162598 19.197 0 18.8021 0 18.3333V1.66667C0 1.19792 0.162598 0.802951 0.487793 0.481771C0.812988 0.16059 1.21289 0 1.6875 0H23.625C24.082 0 24.4775 0.164931 24.8115 0.494792C25.1455 0.824653 25.3125 1.21528 25.3125 1.66667V5H26.1563C26.3848 5 26.5825 5.08247 26.7495 5.2474C26.9165 5.41233 27 5.60764 27 5.83333V7.5C27 7.72569 26.9165 7.92101 26.7495 8.08594C26.5825 8.25087 26.3848 8.33333 26.1563 8.33333H25.3125V11.6667H26.1563ZM20.25 3.33333H18.5625V4.16667C18.5625 4.39236 18.646 4.58767 18.813 4.7526C18.98 4.91753 19.1777 5 19.4063 5C19.6348 5 19.8325 4.91753 19.9995 4.7526C20.1665 4.58767 20.25 4.39236 20.25 4.16667V3.33333ZM23.625 4.16667C23.625 3.94097 23.5415 3.74566 23.3745 3.58073C23.2075 3.4158 23.0098 3.33333 22.7813 3.33333H21.9375V5C21.9375 5.46875 21.7749 5.86372 21.4497 6.1849C21.1245 6.50608 20.7246 6.66667 20.25 6.66667H18.5625C18.0879 6.66667 17.688 6.50174 17.3628 6.17187C17.0376 5.84201 16.875 5.45139 16.875 5V3.33333H2.53125C2.30273 3.33333 2.10498 3.4158 1.93799 3.58073C1.771 3.74566 1.6875 3.94097 1.6875 4.16667V15.8333C1.6875 16.059 1.771 16.2543 1.93799 16.4193C2.10498 16.5842 2.30273 16.6667 2.53125 16.6667H20.25V15H18.5625C18.0879 15 17.688 14.8394 17.3628 14.5182C17.0376 14.197 16.875 13.8021 16.875 13.3333V10C16.875 9.53125 17.0376 9.13628 17.3628 8.8151C17.688 8.49392 18.0879 8.33333 18.5625 8.33333H20.25C20.707 8.33333 21.1025 8.49392 21.4365 8.8151C21.7705 9.13628 21.9375 9.53125 21.9375 10V16.6667H22.7813C23.0098 16.6667 23.2075 16.5842 23.3745 16.4193C23.5415 16.2543 23.625 16.059 23.625 15.8333V4.16667ZM20.25 12.5V10.8333C20.25 10.6076 20.1665 10.4123 19.9995 10.2474C19.8325 10.0825 19.6348 10 19.4063 10C19.1777 10 18.98 10.0825 18.813 10.2474C18.646 10.4123 18.5625 10.6076 18.5625 10.8333V12.5C18.5625 12.7257 18.646 12.921 18.813 13.0859C18.98 13.2509 19.1777 13.3333 19.4063 13.3333C19.6348 13.3333 19.8325 13.2509 19.9995 13.0859C20.1665 12.921 20.25 12.7257 20.25 12.5ZM14.3438 15C14.1152 15 13.9175 14.9175 13.7505 14.7526C13.5835 14.5877 13.5 14.3924 13.5 14.1667V11.6667H11.8125C11.3379 11.6667 10.938 11.5061 10.6128 11.1849C10.2876 10.8637 10.125 10.4687 10.125 10V5.83333C10.125 5.60764 10.2085 5.41233 10.3755 5.2474C10.5425 5.08247 10.7402 5 10.9688 5C11.1973 5 11.395 5.08247 11.562 5.2474C11.729 5.41233 11.8125 5.60764 11.8125 5.83333V9.16667C11.8125 9.39236 11.896 9.58767 12.063 9.7526C12.23 9.91753 12.4277 10 12.6563 10C12.8848 10 13.0825 9.91753 13.2495 9.7526C13.4165 9.58767 13.5 9.39236 13.5 9.16667V5.83333C13.5 5.60764 13.5835 5.41233 13.7505 5.2474C13.9175 5.08247 14.1152 5 14.3438 5C14.5723 5 14.77 5.08247 14.937 5.2474C15.104 5.41233 15.1875 5.60764 15.1875 5.83333V14.1667C15.1875 14.3924 15.104 14.5877 14.937 14.7526C14.77 14.9175 14.5723 15 14.3438 15ZM6.75 15H5.0625C4.58789 15 4.18799 14.8394 3.86279 14.5182C3.5376 14.197 3.375 13.8021 3.375 13.3333V6.66667C3.375 6.19792 3.5376 5.80295 3.86279 5.48177C4.18799 5.16059 4.58789 5 5.0625 5H6.75C7.22461 5 7.62451 5.16059 7.94971 5.48177C8.2749 5.80295 8.4375 6.19792 8.4375 6.66667V13.3333C8.4375 13.8021 8.2749 14.197 7.94971 14.5182C7.62451 14.8394 7.22461 15 6.75 15ZM6.75 7.5C6.75 7.27431 6.6665 7.07899 6.49951 6.91406C6.33252 6.74913 6.13477 6.66667 5.90625 6.66667C5.67773 6.66667 5.47998 6.74913 5.31299 6.91406C5.146 7.07899 5.0625 7.27431 5.0625 7.5V12.5C5.0625 12.7257 5.146 12.921 5.31299 13.0859C5.47998 13.2509 5.67773 13.3333 5.90625 13.3333C6.13477 13.3333 6.33252 13.2509 6.49951 13.0859C6.6665 12.921 6.75 12.7257 6.75 12.5V7.5Z" fill="url(#paint0_linear)"/>
<defs>
<linearGradient id="paint0_linear" x1="13.5" y1="0" x2="13.5" y2="20" gradientUnits="userSpaceOnUse">
<stop stop-color="#E6E6E6"/>
<stop offset="1" stop-color="white"/>
</linearGradient>
</defs>
</svg>
