<svg width="80" height="59" viewBox="0 0 80 59" fill="none" xmlns="http://www.w3.org/2000/svg">
<path d="M77.5 34.4167C78.1771 34.4167 78.763 34.6599 79.2578 35.1465C79.7526 35.633 80 36.2092 80 36.875V41.7917C80 42.4575 79.7526 43.0336 79.2578 43.5202C78.763 44.0067 78.1771 44.25 77.5 44.25H75V54.0833C75 55.4661 74.5182 56.6313 73.5547 57.5788C72.5912 58.5263 71.4063 59 70 59H5C3.59375 59 2.40885 58.5263 1.44531 57.5788C0.481771 56.6313 0 55.4661 0 54.0833V4.91667C0 3.53385 0.481771 2.36871 1.44531 1.42122C2.40885 0.473741 3.59375 0 5 0H70C71.3542 0 72.526 0.486545 73.5156 1.45964C74.5052 2.43273 75 3.58507 75 4.91667V14.75H77.5C78.1771 14.75 78.763 14.9933 79.2578 15.4798C79.7526 15.9664 80 16.5425 80 17.2083V22.125C80 22.7908 79.7526 23.367 79.2578 23.8535C78.763 24.3401 78.1771 24.5833 77.5 24.5833H75V34.4167H77.5ZM60 9.83333H55V12.2917C55 12.9575 55.2474 13.5336 55.7422 14.0202C56.237 14.5067 56.8229 14.75 57.5 14.75C58.1771 14.75 58.763 14.5067 59.2578 14.0202C59.7526 13.5336 60 12.9575 60 12.2917V9.83333ZM70 12.2917C70 11.6259 69.7526 11.0497 69.2578 10.5632C68.763 10.0766 68.1771 9.83333 67.5 9.83333H65V14.75C65 16.1328 64.5182 17.298 63.5547 18.2454C62.5912 19.1929 61.4063 19.6667 60 19.6667H55C53.5938 19.6667 52.4089 19.1801 51.4453 18.207C50.4818 17.2339 50 16.0816 50 14.75V9.83333H7.5C6.82292 9.83333 6.23698 10.0766 5.74219 10.5632C5.2474 11.0497 5 11.6259 5 12.2917V46.7083C5 47.3741 5.2474 47.9503 5.74219 48.4368C6.23698 48.9234 6.82292 49.1667 7.5 49.1667H60V44.25H55C53.5938 44.25 52.4089 43.7763 51.4453 42.8288C50.4818 41.8813 50 40.7161 50 39.3333V29.5C50 28.1172 50.4818 26.952 51.4453 26.0046C52.4089 25.0571 53.5938 24.5833 55 24.5833H60C61.3542 24.5833 62.526 25.0571 63.5156 26.0046C64.5052 26.952 65 28.1172 65 29.5V49.1667H67.5C68.1771 49.1667 68.763 48.9234 69.2578 48.4368C69.7526 47.9503 70 47.3741 70 46.7083V12.2917ZM60 36.875V31.9583C60 31.2925 59.7526 30.7164 59.2578 30.2298C58.763 29.7433 58.1771 29.5 57.5 29.5C56.8229 29.5 56.237 29.7433 55.7422 30.2298C55.2474 30.7164 55 31.2925 55 31.9583V36.875C55 37.5408 55.2474 38.117 55.7422 38.6035C56.237 39.0901 56.8229 39.3333 57.5 39.3333C58.1771 39.3333 58.763 39.0901 59.2578 38.6035C59.7526 38.117 60 37.5408 60 36.875ZM42.5 44.25C41.8229 44.25 41.237 44.0067 40.7422 43.5202C40.2474 43.0336 40 42.4575 40 41.7917V34.4167H35C33.5938 34.4167 32.4089 33.9429 31.4453 32.9954C30.4818 32.048 30 30.8828 30 29.5V17.2083C30 16.5425 30.2474 15.9664 30.7422 15.4798C31.237 14.9933 31.8229 14.75 32.5 14.75C33.1771 14.75 33.763 14.9933 34.2578 15.4798C34.7526 15.9664 35 16.5425 35 17.2083V27.0417C35 27.7075 35.2474 28.2836 35.7422 28.7702C36.237 29.2567 36.8229 29.5 37.5 29.5C38.1771 29.5 38.763 29.2567 39.2578 28.7702C39.7526 28.2836 40 27.7075 40 27.0417V17.2083C40 16.5425 40.2474 15.9664 40.7422 15.4798C41.237 14.9933 41.8229 14.75 42.5 14.75C43.1771 14.75 43.763 14.9933 44.2578 15.4798C44.7526 15.9664 45 16.5425 45 17.2083V41.7917C45 42.4575 44.7526 43.0336 44.2578 43.5202C43.763 44.0067 43.1771 44.25 42.5 44.25ZM20 44.25H15C13.5938 44.25 12.4089 43.7763 11.4453 42.8288C10.4818 41.8813 10 40.7161 10 39.3333V19.6667C10 18.2839 10.4818 17.1187 11.4453 16.1712C12.4089 15.2237 13.5938 14.75 15 14.75H20C21.4063 14.75 22.5911 15.2237 23.5547 16.1712C24.5182 17.1187 25 18.2839 25 19.6667V39.3333C25 40.7161 24.5182 41.8813 23.5547 42.8288C22.5911 43.7763 21.4063 44.25 20 44.25ZM20 22.125C20 21.4592 19.7526 20.883 19.2578 20.3965C18.763 19.9099 18.1771 19.6667 17.5 19.6667C16.8229 19.6667 16.237 19.9099 15.7422 20.3965C15.2474 20.883 15 21.4592 15 22.125V36.875C15 37.5408 15.2474 38.117 15.7422 38.6035C16.237 39.0901 16.8229 39.3333 17.5 39.3333C18.1771 39.3333 18.763 39.0901 19.2578 38.6035C19.7526 38.117 20 37.5408 20 36.875V22.125Z" fill="url(#paint0_linear)"/>
<defs>
<linearGradient id="paint0_linear" x1="40" y1="0" x2="40" y2="59" gradientUnits="userSpaceOnUse">
<stop stop-color="#8A8A8A"/>
<stop offset="1"/>
</linearGradient>
</defs>
</svg>
